<svg xmlns="http://www.w3.org/2000/svg" viewBox="0 0 495 135"><defs><style>.cls-1{fill:#fff;}</style></defs><g id="Camada_2" data-name="Camada 2"><g id="Camada_1-2" data-name="Camada 1"><path class="cls-1" d="M487,8V127H8V8H487m8-8H0V135H495V0Z"/><path class="cls-1" d="M50.68,17.72v3.36a5.82,5.82,0,0,0-2.77,1.54A3.7,3.7,0,0,0,47,25.19a4.25,4.25,0,0,0,.79,2.56,7.82,7.82,0,0,0,2.58,2.09q1.23.68,5.57,2.58A29.57,29.57,0,0,1,60,34.49a13.89,13.89,0,0,1,2.74,2.3,12.08,12.08,0,0,1,3.46,8.64,13.36,13.36,0,0,1-7,11.84,18.21,18.21,0,0,1-3.85,1.48,15.75,15.75,0,0,1-3.92.54V56a7.84,7.84,0,0,0,3.68-1.72,4,4,0,0,0,1.13-3,4.46,4.46,0,0,0-1.76-3.46A21.12,21.12,0,0,0,50,45.4c-2.4-1-4-1.81-4.94-2.25a17.55,17.55,0,0,1-2.56-1.59A12.23,12.23,0,0,1,37,31.1a13.84,13.84,0,0,1,1.38-6.16,11.64,11.64,0,0,1,3.84-4.56A15.86,15.86,0,0,1,50.68,17.72ZM49.16,56v3.34a12.47,12.47,0,0,1-5.3-1.38c-.73-.33-1.23-.55-1.5-.64a2.3,2.3,0,0,0-.79-.15,1.62,1.62,0,0,0-.88.19,5.81,5.81,0,0,0-.94.95,1.49,1.49,0,0,1-1.14.65c-1.09,0-1.64-.84-1.64-2.52V45.72a2.14,2.14,0,0,1,.47-1.39,1.54,1.54,0,0,1,1.17-.6,1.2,1.2,0,0,1,1,.37,3.22,3.22,0,0,1,.63,1.39,19.41,19.41,0,0,0,2,4.72,15.39,15.39,0,0,0,3,3.72A8.13,8.13,0,0,0,49.16,56ZM53,21.08V17.86a16.14,16.14,0,0,1,3,.46,30,30,0,0,1,3.67,1.33,2.62,2.62,0,0,0,1,.23.91.91,0,0,0,.82-.38l.65-.85A1.36,1.36,0,0,1,63.28,18a1.28,1.28,0,0,1,1.16.57,3.47,3.47,0,0,1,.36,1.8v9.67a2,2,0,0,1-.48,1.39,1.6,1.6,0,0,1-1.25.54A1.7,1.7,0,0,1,62,31.6a1.51,1.51,0,0,1-.42-.57,4.83,4.83,0,0,1-.31-1.13,12.62,12.62,0,0,0-1.12-3,13.52,13.52,0,0,0-1.84-2.72A10.1,10.1,0,0,0,53,21.08Z"/><path class="cls-1" d="M89.12,18.51v40H75.32a2.78,2.78,0,0,1-1.63-.4A1.29,1.29,0,0,1,73.12,57a1.54,1.54,0,0,1,1.17-1.58c.65-.21,1-.35,1.13-.39a1,1,0,0,0,.34-.34,2.53,2.53,0,0,0,.35-1.49V23.84a2.59,2.59,0,0,0-.35-1.5.94.94,0,0,0-.34-.33c-.11-.05-.48-.18-1.13-.4A1.53,1.53,0,0,1,73.12,20a1.3,1.3,0,0,1,.57-1.13,2.87,2.87,0,0,1,1.63-.39h13.8Zm2.46,21.32V36.44a7.78,7.78,0,0,0,2.52-1.79,6.25,6.25,0,0,0,1.2-2.58,3.48,3.48,0,0,1,.61-1.54A1.41,1.41,0,0,1,97,30.11a1.31,1.31,0,0,1,1.29.73,4.64,4.64,0,0,1,.2,1.73V43.73a4.09,4.09,0,0,1-.31,1.91,1.19,1.19,0,0,1-1.13.52,1.33,1.33,0,0,1-1-.41,3.19,3.19,0,0,1-.62-1.37A7.44,7.44,0,0,0,94,41.27,4.43,4.43,0,0,0,91.58,39.83Zm.14-21.32h11.81V28.88a2.06,2.06,0,0,1-.35,1.32,1.42,1.42,0,0,1-1.12.41,1.32,1.32,0,0,1-.93-.27,2.49,2.49,0,0,1-.56-1.08,10.91,10.91,0,0,0-3.27-5.19,10.15,10.15,0,0,0-5.58-2.14Zm0,40V55.33a13.24,13.24,0,0,0,3.15-.82,9.72,9.72,0,0,0,2.51-1.61,10.24,10.24,0,0,0,2-2.24,14.74,14.74,0,0,0,1.42-3.06,3.34,3.34,0,0,1,.68-1.28,1.33,1.33,0,0,1,1-.33,1.29,1.29,0,0,1,1.15.48,3.25,3.25,0,0,1,.32,1.69V58.5Z"/><path class="cls-1" d="M126.67,18.51V52.93a2.48,2.48,0,0,0,.44,1.64,1.08,1.08,0,0,0,.44.37q.21.08,1.35.36a1.57,1.57,0,0,1,1.4,1.62,1.41,1.41,0,0,1-.76,1.23,3.63,3.63,0,0,1-1.84.35H112.87a2.77,2.77,0,0,1-1.62-.4,1.27,1.27,0,0,1-.58-1.13,1.53,1.53,0,0,1,1.18-1.58c.64-.21,1-.35,1.12-.39a1,1,0,0,0,.34-.34,2.46,2.46,0,0,0,.35-1.49V23.84a2.52,2.52,0,0,0-.35-1.5A.94.94,0,0,0,113,22c-.1-.05-.48-.18-1.12-.4A1.53,1.53,0,0,1,110.67,20a1.29,1.29,0,0,1,.58-1.13,2.85,2.85,0,0,1,1.62-.39h13.8Zm9,20.39a24,24,0,0,1,4.15.91,10,10,0,0,1,2.62,1.34,6.39,6.39,0,0,1,1.89,2.17A5.67,5.67,0,0,1,145,46v6.06c0,.63.21.94.62.94a.59.59,0,0,0,.39-.13,3.42,3.42,0,0,0,.46-.52,2,2,0,0,1,1.49-1,1.4,1.4,0,0,1,1,.53,1.54,1.54,0,0,1,.49,1,4.2,4.2,0,0,1-.86,2.21,10.07,10.07,0,0,1-2.15,2.33,7.5,7.5,0,0,1-2.61,1.39,11.26,11.26,0,0,1-3.31.43,8.1,8.1,0,0,1-6-2.21,8.46,8.46,0,0,1-2.16-6.17V46c0-1.1,0-1.73,0-1.91a4,4,0,0,0-.82-2,3.55,3.55,0,0,0-2.44-1.2V37.73a4.52,4.52,0,0,0,2.26-.82,2.88,2.88,0,0,0,.81-1.21,7,7,0,0,0,.22-2V26a4.42,4.42,0,0,0-.72-2.76,5,5,0,0,0-2.6-1.43V18.51h.77a54.4,54.4,0,0,1,5.53.23A12.29,12.29,0,0,1,141.35,21a8.94,8.94,0,0,1,3.84,7.76,9.27,9.27,0,0,1-2.58,6.77,9,9,0,0,1-2.54,1.82A32.19,32.19,0,0,1,135.66,38.9Z"/><path class="cls-1" d="M171,18.51V52.93a2.48,2.48,0,0,0,.44,1.64,1.14,1.14,0,0,0,.44.37q.21.08,1.35.36a1.57,1.57,0,0,1,1.41,1.62,1.42,1.42,0,0,1-.77,1.23,3.63,3.63,0,0,1-1.84.35H157.16a2.77,2.77,0,0,1-1.62-.4A1.29,1.29,0,0,1,155,57a1.54,1.54,0,0,1,1.17-1.58c.64-.21,1-.35,1.13-.39a1,1,0,0,0,.33-.34,2.46,2.46,0,0,0,.36-1.49V23.84a2.51,2.51,0,0,0-.36-1.5.93.93,0,0,0-.33-.33c-.11-.05-.49-.18-1.13-.4A1.53,1.53,0,0,1,155,20a1.3,1.3,0,0,1,.57-1.13,2.85,2.85,0,0,1,1.62-.39H171Zm9,20.39a23.86,23.86,0,0,1,4.14.91,10.18,10.18,0,0,1,2.63,1.34,6.25,6.25,0,0,1,1.88,2.17,5.67,5.67,0,0,1,.66,2.67v6.06c0,.63.21.94.62.94a.56.56,0,0,0,.39-.13,3.42,3.42,0,0,0,.46-.52,2,2,0,0,1,1.49-1,1.39,1.39,0,0,1,1,.53,1.56,1.56,0,0,1,.5,1,4.23,4.23,0,0,1-.87,2.21,9.86,9.86,0,0,1-2.15,2.33,7.5,7.5,0,0,1-2.61,1.39,11.26,11.26,0,0,1-3.31.43,8.06,8.06,0,0,1-6-2.21,8.43,8.43,0,0,1-2.17-6.17V46c0-1.1,0-1.73,0-1.91a4,4,0,0,0-.82-2,3.55,3.55,0,0,0-2.43-1.2V37.73a4.51,4.51,0,0,0,2.25-.82,2.88,2.88,0,0,0,.81-1.21,6.68,6.68,0,0,0,.22-2V26a4.42,4.42,0,0,0-.72-2.76,5,5,0,0,0-2.59-1.43V18.51H174a54.61,54.61,0,0,1,5.54.23A12.29,12.29,0,0,1,185.64,21a8.94,8.94,0,0,1,3.84,7.76,9.27,9.27,0,0,1-2.58,6.77,9.08,9.08,0,0,1-2.53,1.82A33.23,33.23,0,0,1,180,38.9Z"/><path class="cls-1" d="M209,26,210.48,32,205.3,50.94a5.44,5.44,0,0,0-.24,1.52,2.72,2.72,0,0,0,1.73,2.64l1,.47a1.49,1.49,0,0,1,1,1.46c0,1-.71,1.47-2.14,1.47H199.2a2.82,2.82,0,0,1-1.71-.46,1.44,1.44,0,0,1-.63-1.24q0-.86,1.29-1.41a9.63,9.63,0,0,0,1.77-1,5.14,5.14,0,0,0,1.1-1.16,10.73,10.73,0,0,0,1.35-3.19Zm2-7.44h11.8L231,52.93a11.69,11.69,0,0,0,.53,1.61,2,2,0,0,0,1.17.91,3.13,3.13,0,0,1,1.05.64,1.25,1.25,0,0,1,.3.88c0,1-.77,1.53-2.29,1.53H217.1a2.13,2.13,0,0,1-1.4-.43,1.35,1.35,0,0,1-.53-1.13,1.39,1.39,0,0,1,.23-.87,3.78,3.78,0,0,1,1.06-.74,2.09,2.09,0,0,0,.82-.64,1.62,1.62,0,0,0,.23-.88,3.84,3.84,0,0,0-.09-.88l-.93-4.25h-8.18l.79-3.48h6.57l-5.39-23.82Z"/><path class="cls-1" d="M254.75,58.5H241a2.78,2.78,0,0,1-1.63-.4,1.29,1.29,0,0,1-.57-1.13,1.54,1.54,0,0,1,1.17-1.58c.65-.21,1-.35,1.13-.39a1,1,0,0,0,.34-.34,2.53,2.53,0,0,0,.35-1.49V23.84a2.59,2.59,0,0,0-.35-1.5.94.94,0,0,0-.34-.33c-.11-.05-.48-.18-1.13-.4A1.53,1.53,0,0,1,238.75,20a1.3,1.3,0,0,1,.57-1.13,2.87,2.87,0,0,1,1.63-.39h14.82a3.57,3.57,0,0,1,1.85.35,1.41,1.41,0,0,1,.76,1.23A1.56,1.56,0,0,1,257,21.7c-.76.18-1.21.29-1.35.35a1.55,1.55,0,0,0-.44.35,2.55,2.55,0,0,0-.43,1.64Zm2.37,0V55.22a14,14,0,0,0,2.27-.59,5.84,5.84,0,0,0,1.6-.94A9.6,9.6,0,0,0,263.24,51a17.53,17.53,0,0,0,1.67-3.78,6.94,6.94,0,0,1,.87-2.13,1.35,1.35,0,0,1,1.15-.51,1.27,1.27,0,0,1,1.2.67,3.06,3.06,0,0,1,.18,1.29V58.5Z"/><path class="cls-1" d="M289.69,58.5H275.86a2.77,2.77,0,0,1-1.62-.4,1.29,1.29,0,0,1-.57-1.13,1.54,1.54,0,0,1,1.17-1.58c.64-.21,1-.35,1.13-.39a1,1,0,0,0,.33-.34,2.46,2.46,0,0,0,.36-1.49V23.84a2.51,2.51,0,0,0-.36-1.5A.93.93,0,0,0,276,22c-.11-.05-.49-.18-1.13-.4A1.53,1.53,0,0,1,273.67,20a1.3,1.3,0,0,1,.57-1.13,2.85,2.85,0,0,1,1.62-.39h14.59c1.39,0,2.08.5,2.08,1.52a1.49,1.49,0,0,1-1.11,1.58l-.91.3c-.56.19-.85.84-.85,1.93V53.17c0,1.09.29,1.73.85,1.93l.91.29A1.5,1.5,0,0,1,292.53,57c0,1-.69,1.53-2.08,1.53Zm2.46-21.89h4.78V23.84c0-1.09-.28-1.74-.85-1.93l-.94-.3A1.49,1.49,0,0,1,294,20c0-1,.7-1.52,2.11-1.52h14.59c1.46,0,2.19.5,2.19,1.52a1.53,1.53,0,0,1-1.17,1.58c-.64.22-1,.35-1.13.4a1,1,0,0,0-.33.33,2.52,2.52,0,0,0-.35,1.5V53.05c0,1.07.29,1.73.88,2l.93.32a1.56,1.56,0,0,1,1.17,1.61q0,1.56-2.19,1.56H296.08c-1.37,0-2.05-.52-2.05-1.56a1.55,1.55,0,0,1,1.11-1.61l.94-.32c.57-.18.85-.83.85-2V39.51h-4.78Z"/><path class="cls-1" d="M336.68,18.51v40h-13.8a2.77,2.77,0,0,1-1.62-.4,1.3,1.3,0,0,1-.58-1.13,1.54,1.54,0,0,1,1.18-1.58c.64-.21,1-.35,1.12-.39a1,1,0,0,0,.34-.34,2.46,2.46,0,0,0,.35-1.49V23.84a2.52,2.52,0,0,0-.35-1.5A.94.94,0,0,0,323,22c-.1-.05-.48-.18-1.12-.4A1.54,1.54,0,0,1,320.68,20a1.31,1.31,0,0,1,.58-1.13,2.85,2.85,0,0,1,1.62-.39h13.8Zm2.46,21.32V36.44a7.78,7.78,0,0,0,2.52-1.79,6,6,0,0,0,1.2-2.58,3.47,3.47,0,0,1,.62-1.54,1.37,1.37,0,0,1,1.08-.42,1.29,1.29,0,0,1,1.29.73,4.36,4.36,0,0,1,.21,1.73V43.73a4.23,4.23,0,0,1-.31,1.91,1.2,1.2,0,0,1-1.13.52,1.33,1.33,0,0,1-1.05-.41,3.07,3.07,0,0,1-.62-1.37,7.57,7.57,0,0,0-1.42-3.11A4.46,4.46,0,0,0,339.14,39.83Zm.15-21.32h11.8V28.88a2,2,0,0,1-.35,1.32,1.74,1.74,0,0,1-2.05.14,2.51,2.51,0,0,1-.55-1.08,11.07,11.07,0,0,0-3.27-5.19,10.22,10.22,0,0,0-5.58-2.14Zm0,40V55.33a13.24,13.24,0,0,0,3.15-.82A9.67,9.67,0,0,0,345,52.9a10.57,10.57,0,0,0,2-2.24,14.74,14.74,0,0,0,1.42-3.06,3.35,3.35,0,0,1,.67-1.28,1.37,1.37,0,0,1,1-.33,1.26,1.26,0,0,1,1.14.48,3.15,3.15,0,0,1,.32,1.69V58.5Z"/><path class="cls-1" d="M374.24,18.51V52.93a2.48,2.48,0,0,0,.43,1.64,1.14,1.14,0,0,0,.44.37q.21.08,1.35.36a1.57,1.57,0,0,1,1.41,1.62,1.43,1.43,0,0,1-.76,1.23,3.68,3.68,0,0,1-1.85.35H360.44a2.78,2.78,0,0,1-1.63-.4,1.29,1.29,0,0,1-.57-1.13,1.54,1.54,0,0,1,1.17-1.58c.65-.21,1-.35,1.13-.39a1,1,0,0,0,.34-.34,2.53,2.53,0,0,0,.35-1.49V23.84a2.59,2.59,0,0,0-.35-1.5.94.94,0,0,0-.34-.33c-.11-.05-.48-.18-1.13-.4A1.53,1.53,0,0,1,358.24,20a1.3,1.3,0,0,1,.57-1.13,2.87,2.87,0,0,1,1.63-.39h13.8Zm9,20.39a24,24,0,0,1,4.15.91A10.12,10.12,0,0,1,390,41.15a6.39,6.39,0,0,1,1.89,2.17,5.67,5.67,0,0,1,.66,2.67v6.06c0,.63.2.94.61.94a.6.6,0,0,0,.4-.13,3.51,3.51,0,0,0,.45-.52,2,2,0,0,1,1.49-1,1.37,1.37,0,0,1,1,.53,1.56,1.56,0,0,1,.5,1,4.23,4.23,0,0,1-.87,2.21A9.86,9.86,0,0,1,394,57.47a7.5,7.5,0,0,1-2.61,1.39,11.22,11.22,0,0,1-3.31.43,8.07,8.07,0,0,1-6-2.21,8.43,8.43,0,0,1-2.17-6.17V46c0-1.1,0-1.73,0-1.91a4,4,0,0,0-.82-2,3.55,3.55,0,0,0-2.43-1.2V37.73a4.47,4.47,0,0,0,2.25-.82,2.79,2.79,0,0,0,.81-1.21,6.68,6.68,0,0,0,.22-2V26a4.42,4.42,0,0,0-.72-2.76,5,5,0,0,0-2.59-1.43V18.51h.76a54.48,54.48,0,0,1,5.54.23A12.25,12.25,0,0,1,388.91,21a8.94,8.94,0,0,1,3.84,7.76,9.27,9.27,0,0,1-2.58,6.77,8.93,8.93,0,0,1-2.53,1.82A33.23,33.23,0,0,1,383.23,38.9Z"/><path class="cls-1" d="M418.56,58.5H404.73a2.81,2.81,0,0,1-1.63-.4,1.29,1.29,0,0,1-.57-1.13,1.54,1.54,0,0,1,1.17-1.58c.65-.21,1-.35,1.13-.39a1,1,0,0,0,.34-.34,2.53,2.53,0,0,0,.35-1.49V23.84a2.59,2.59,0,0,0-.35-1.5.94.94,0,0,0-.34-.33c-.11-.05-.48-.18-1.13-.4A1.53,1.53,0,0,1,402.53,20a1.3,1.3,0,0,1,.57-1.13,2.89,2.89,0,0,1,1.63-.39h14.59a2.91,2.91,0,0,1,1.63.39,1.3,1.3,0,0,1,.57,1.13,1.53,1.53,0,0,1-1.18,1.58c-.64.22-1,.35-1.12.4a.94.94,0,0,0-.34.33,2.59,2.59,0,0,0-.35,1.5V53.17a2.53,2.53,0,0,0,.35,1.49,1,1,0,0,0,.34.34c.1,0,.48.18,1.12.39A1.53,1.53,0,0,1,421.52,57,1.29,1.29,0,0,1,421,58.1a2.83,2.83,0,0,1-1.63.4Z"/><path class="cls-1" d="M438.39,26,439.88,32,434.7,50.94a5.44,5.44,0,0,0-.24,1.52,2.72,2.72,0,0,0,1.73,2.64l1,.47a1.5,1.5,0,0,1,1,1.46c0,1-.71,1.47-2.14,1.47H428.6a2.82,2.82,0,0,1-1.71-.46,1.44,1.44,0,0,1-.63-1.24q0-.86,1.29-1.41a9.63,9.63,0,0,0,1.77-1,5.14,5.14,0,0,0,1.1-1.16,10.23,10.23,0,0,0,1.35-3.19Zm2-7.44h11.81l8.14,34.42a11.69,11.69,0,0,0,.53,1.61,2,2,0,0,0,1.17.91,3.31,3.31,0,0,1,1.06.64,1.3,1.3,0,0,1,.29.88c0,1-.76,1.53-2.29,1.53H446.5a2.13,2.13,0,0,1-1.4-.43,1.58,1.58,0,0,1-.3-2,3.78,3.78,0,0,1,1.06-.74,2.09,2.09,0,0,0,.82-.64,1.54,1.54,0,0,0,.23-.88,4.56,4.56,0,0,0-.08-.88l-.94-4.25h-8.18l.8-3.48h6.56l-5.39-23.82Z"/><path class="cls-1" d="M168.38,74.71l5.77,16.43,2.55-8.87V92l-6.76,22.71h-1.56L157,81a6,6,0,0,0-1.23-2.29,2.54,2.54,0,0,0-1.32-.55c-1.27-.28-1.91-.88-1.91-1.82a1.44,1.44,0,0,1,.54-1.19,2.55,2.55,0,0,1,1.57-.42ZM157,88.19l3.1,8.84v8.82a12.69,12.69,0,0,0,.1,1.94,4.53,4.53,0,0,0,.46,1.28,4.33,4.33,0,0,0,1.7,1.94l1.08.7q1.11.67,1.11,1.5c0,1-.73,1.49-2.19,1.49H155q-2.19,0-2.19-1.47a1.11,1.11,0,0,1,.19-.71,2.35,2.35,0,0,1,.74-.57q3.26-1.77,3.26-6.1Zm22.14-13.48H193c1.47,0,2.2.51,2.2,1.52A1.53,1.53,0,0,1,194,77.81c-.65.22-1,.35-1.13.4a.9.9,0,0,0-.34.34,2.53,2.53,0,0,0-.35,1.49v29.33a2.53,2.53,0,0,0,.35,1.49.9.9,0,0,0,.34.34c.11,0,.48.18,1.13.39a1.55,1.55,0,0,1,1.17,1.59c0,1-.73,1.52-2.2,1.52H178.17a3.79,3.79,0,0,1-1.95-.4,1.29,1.29,0,0,1-.66-1.18,1.56,1.56,0,0,1,1.41-1.61c.76-.2,1.21-.32,1.34-.37a.9.9,0,0,0,.41-.34,2.55,2.55,0,0,0,.44-1.67Z"/><path class="cls-1" d="M212,82.15l1.5,6.06-5.19,18.93a5.45,5.45,0,0,0-.23,1.52,2.71,2.71,0,0,0,1.72,2.64l1,.47a1.51,1.51,0,0,1,1,1.46c0,1-.72,1.47-2.14,1.47h-7.44a2.9,2.9,0,0,1-1.72-.45,1.47,1.47,0,0,1-.63-1.25q0-.85,1.29-1.41a9.63,9.63,0,0,0,1.77-1,5.14,5.14,0,0,0,1.1-1.16,10.23,10.23,0,0,0,1.35-3.19Zm2-7.44h11.81L234,109.13a12.67,12.67,0,0,0,.53,1.61,2,2,0,0,0,1.17.91,3.13,3.13,0,0,1,1.06.65,1.26,1.26,0,0,1,.29.88c0,1-.76,1.52-2.28,1.52H220.15a2.14,2.14,0,0,1-1.41-.43,1.55,1.55,0,0,1-.29-2,3.52,3.52,0,0,1,1.05-.73,2.12,2.12,0,0,0,.82-.65,1.52,1.52,0,0,0,.24-.88,3.91,3.91,0,0,0-.09-.88l-.94-4.25h-8.17l.79-3.48h6.56l-5.39-23.82Z"/><path class="cls-1" d="M240.59,74.71h7.71v3.54a6,6,0,0,0-2.14,2,12.33,12.33,0,0,0-1.7,4.71l-.29,1.79a2.41,2.41,0,0,1-.63,1.33,1.68,1.68,0,0,1-1.22.49,1.6,1.6,0,0,1-1.24-.53,1.93,1.93,0,0,1-.49-1.38Zm23.09,0v34.42a2.42,2.42,0,0,0,.44,1.64,1,1,0,0,0,.44.37c.13,0,.58.17,1.34.37a1.56,1.56,0,0,1,1.41,1.61,1.4,1.4,0,0,1-.76,1.23,3.76,3.76,0,0,1-1.88.35h-15a3.74,3.74,0,0,1-1.94-.4,1.29,1.29,0,0,1-.66-1.18,1.55,1.55,0,0,1,1.4-1.61c.76-.2,1.21-.32,1.35-.37a.92.92,0,0,0,.41-.37,2.48,2.48,0,0,0,.44-1.64V74.71Zm10.13,0v12a2,2,0,0,1-.48,1.38,1.62,1.62,0,0,1-1.24.53,1.67,1.67,0,0,1-1.22-.49,2.41,2.41,0,0,1-.63-1.33L270,85a12.5,12.5,0,0,0-1.7-4.71,6.32,6.32,0,0,0-2.14-2V74.71Z"/><path class="cls-1" d="M295.17,77.08a4,4,0,0,0-2.11,1.44,4.73,4.73,0,0,0-.62,2.66v26.2a6.88,6.88,0,0,0,.71,3.63,3.25,3.25,0,0,0,2,1.26v3.22a16.88,16.88,0,0,1-10.9-4.89q-5.72-5.68-5.71-15.85a26.58,26.58,0,0,1,1.51-9.22,18.32,18.32,0,0,1,4.46-7,16.37,16.37,0,0,1,4.87-3.34,16.15,16.15,0,0,1,5.77-1.29Zm2.4,0V73.92a15.59,15.59,0,0,1,10.66,4.63q6,5.82,6,16.2,0,10.17-5.71,15.85a16.71,16.71,0,0,1-10.93,4.89v-3.22a3.74,3.74,0,0,0,1.19-.46,2.69,2.69,0,0,0,.77-.8,6.65,6.65,0,0,0,.79-3.63V81.18a4.94,4.94,0,0,0-.52-2.46,2.94,2.94,0,0,0-.84-1A5.44,5.44,0,0,0,297.57,77.08Z"/><path class="cls-1" d="M333.66,73.92v3.37a5.66,5.66,0,0,0-2.77,1.54,3.65,3.65,0,0,0-.95,2.56,4.23,4.23,0,0,0,.79,2.56,8,8,0,0,0,2.58,2.1c.82.45,2.67,1.31,5.57,2.57A32,32,0,0,1,343,90.69,14.24,14.24,0,0,1,345.7,93a12.08,12.08,0,0,1,3.46,8.64,13.33,13.33,0,0,1-7,11.84,17.69,17.69,0,0,1-3.85,1.48,15.81,15.81,0,0,1-3.92.54v-3.34a7.94,7.94,0,0,0,3.68-1.71,4,4,0,0,0,1.13-3,4.42,4.42,0,0,0-1.76-3.45A20.84,20.84,0,0,0,333,101.6c-2.41-1-4-1.8-4.94-2.25a18.38,18.38,0,0,1-2.56-1.58A12.25,12.25,0,0,1,320,87.31a13.86,13.86,0,0,1,1.38-6.17,11.68,11.68,0,0,1,3.83-4.56A15.92,15.92,0,0,1,333.66,73.92Zm-1.52,38.23v3.34a12.55,12.55,0,0,1-5.31-1.38c-.72-.33-1.22-.54-1.49-.64a2.3,2.3,0,0,0-.79-.15,1.72,1.72,0,0,0-.88.19,5.82,5.82,0,0,0-.94.95,1.49,1.49,0,0,1-1.14.65c-1.09,0-1.64-.84-1.64-2.52V101.93a2.17,2.17,0,0,1,.47-1.4,1.54,1.54,0,0,1,1.17-.6,1.23,1.23,0,0,1,1,.37,3.34,3.34,0,0,1,.63,1.39,19.41,19.41,0,0,0,1.95,4.72,15.39,15.39,0,0,0,3,3.72A8.09,8.09,0,0,0,332.14,112.15ZM336,77.29V74.06a16.13,16.13,0,0,1,3,.46,29.42,29.42,0,0,1,3.66,1.33,2.71,2.71,0,0,0,1,.24.94.94,0,0,0,.82-.38l.65-.85a1.38,1.38,0,0,1,1.14-.65,1.28,1.28,0,0,1,1.16.57,3.47,3.47,0,0,1,.36,1.8v9.67a2,2,0,0,1-.48,1.39,1.61,1.61,0,0,1-1.25.55A1.71,1.71,0,0,1,345,87.8a1.65,1.65,0,0,1-.43-.57,5,5,0,0,1-.3-1.12,12.3,12.3,0,0,0-1.12-3,13.32,13.32,0,0,0-1.84-2.73A10,10,0,0,0,336,77.29Z"/></g></g></svg>